<?xml version="1.0" encoding="UTF-8"?>
<!DOCTYPE svg PUBLIC "-//W3C//DTD SVG 1.1//EN" "http://www.w3.org/Graphics/SVG/1.1/DTD/svg11.dtd">
<svg xmlns="http://www.w3.org/2000/svg" version="1.1" width="450px" height="450px" style="shape-rendering:geometricPrecision; text-rendering:geometricPrecision; image-rendering:optimizeQuality; fill-rule:evenodd; clip-rule:evenodd" xmlns:xlink="http://www.w3.org/1999/xlink">
<g><path style="opacity:1" fill="#fefefe" d="M -0.5,-0.5 C 149.5,-0.5 299.5,-0.5 449.5,-0.5C 449.5,149.5 449.5,299.5 449.5,449.5C 299.5,449.5 149.5,449.5 -0.5,449.5C -0.5,299.5 -0.5,149.5 -0.5,-0.5 Z"/></g>
<g><path style="opacity:1" fill="#5b6164" d="M 223.5,134.5 C 223.5,139.833 223.5,145.167 223.5,150.5C 224.5,150.5 225.5,150.5 226.5,150.5C 225.432,151.434 224.099,151.768 222.5,151.5C 222.178,145.642 222.511,139.975 223.5,134.5 Z"/></g>
<g><path style="opacity:1" fill="#2c373e" d="M 240.5,137.5 C 242.346,137.222 243.68,137.889 244.5,139.5C 242.667,143.833 240.833,148.167 239,152.5C 237.989,153.337 236.822,153.67 235.5,153.5C 237.167,148.167 238.833,142.833 240.5,137.5 Z"/></g>
<g><path style="opacity:1" fill="#26343c" d="M 223.5,134.5 C 224.5,134.5 225.5,134.5 226.5,134.5C 226.5,139.833 226.5,145.167 226.5,150.5C 225.5,150.5 224.5,150.5 223.5,150.5C 223.5,145.167 223.5,139.833 223.5,134.5 Z"/></g>
<g><path style="opacity:1" fill="#354146" d="M 205.5,137.5 C 206.978,137.238 208.311,137.571 209.5,138.5C 211.695,143.085 213.695,147.751 215.5,152.5C 214.167,153.833 212.833,153.833 211.5,152.5C 209.204,147.581 207.204,142.581 205.5,137.5 Z"/></g>
<g><path style="opacity:1" fill="#303b43" d="M 193.5,146.5 C 197.464,149.963 201.298,153.63 205,157.5C 205.5,159.667 204.667,160.5 202.5,160C 199.325,156.492 195.825,153.325 192,150.5C 191.7,148.934 192.2,147.601 193.5,146.5 Z"/></g>
<g><path style="opacity:1" fill="#2e363e" d="M 248.5,160.5 C 247.5,160.5 246.5,160.5 245.5,160.5C 245.351,159.448 245.517,158.448 246,157.5C 249.371,154.297 252.538,150.964 255.5,147.5C 256.077,146.227 256.743,146.227 257.5,147.5C 258.326,148.451 258.492,149.451 258,150.5C 254.629,153.703 251.462,157.036 248.5,160.5 Z"/></g>
<g><path style="opacity:1" fill="#fafcfc" d="M 234.5,205.5 C 227.443,205.76 220.443,205.427 213.5,204.5C 213.799,202.396 213.466,200.396 212.5,198.5C 200.796,188.218 199.462,176.718 208.5,164C 218.859,155.7 229.526,155.367 240.5,163C 247.493,170.306 249.326,178.806 246,188.5C 244.075,192.593 241.242,195.926 237.5,198.5C 236.865,201.099 235.865,203.432 234.5,205.5 Z"/></g>
<g><path style="opacity:1" fill="#e9f1f3" d="M 255.5,147.5 C 252.538,150.964 249.371,154.297 246,157.5C 245.517,158.448 245.351,159.448 245.5,160.5C 246.5,160.5 247.5,160.5 248.5,160.5C 246.372,161.281 246.205,162.281 248,163.5C 248.333,163.167 248.667,162.833 249,162.5C 249.308,163.308 249.808,163.975 250.5,164.5C 253.095,163.78 255.429,163.78 257.5,164.5C 255.709,165.391 253.876,166.391 252,167.5C 251.481,169.489 252.314,170.489 254.5,170.5C 251.206,172.956 250.873,175.623 253.5,178.5C 253.232,180.099 253.566,181.432 254.5,182.5C 255.301,184.042 255.634,185.708 255.5,187.5C 262.508,186.981 269.508,186.314 276.5,185.5C 279.486,185.382 282.152,186.048 284.5,187.5C 275.448,187.193 266.448,187.693 257.5,189C 254.379,189.967 252.046,191.8 250.5,194.5C 250.123,192.176 249.123,191.509 247.5,192.5C 253.655,178.903 250.989,167.569 239.5,158.5C 241.144,158.286 242.644,158.62 244,159.5C 244.72,157.888 244.554,156.388 243.5,155C 245.679,153.152 247.513,150.985 249,148.5C 250.66,148.676 252.326,148.009 254,146.5C 254.383,147.056 254.883,147.389 255.5,147.5 Z"/></g>
<g><path style="opacity:1" fill="#2f3b3f" d="M 183.5,161.5 C 188.415,162.727 193.081,164.561 197.5,167C 198.337,168.011 198.67,169.178 198.5,170.5C 193.167,168.833 187.833,167.167 182.5,165.5C 182.433,164.041 182.766,162.708 183.5,161.5 Z"/></g>
<g><path style="opacity:1" fill="#2d3942" d="M 254.5,170.5 C 252.314,170.489 251.481,169.489 252,167.5C 253.876,166.391 255.709,165.391 257.5,164.5C 260.704,163.099 264.037,162.099 267.5,161.5C 267.67,162.822 267.337,163.989 266.5,165C 262.428,166.743 258.428,168.576 254.5,170.5 Z"/></g>
<g><path style="opacity:1" fill="#2c383f" d="M 239.5,158.5 C 250.989,167.569 253.655,178.903 247.5,192.5C 244.899,195.604 242.066,198.604 239,201.5C 239.107,204.557 237.94,206.891 235.5,208.5C 234.508,212.783 234.174,217.116 234.5,221.5C 231.172,222.488 227.839,223.488 224.5,224.5C 221.354,223.812 218.354,222.812 215.5,221.5C 216.221,215.961 215.221,210.961 212.5,206.5C 213.329,205.668 214.162,206.001 215,207.5C 221.599,206.85 228.099,206.184 234.5,205.5C 235.865,203.432 236.865,201.099 237.5,198.5C 241.242,195.926 244.075,192.593 246,188.5C 249.326,178.806 247.493,170.306 240.5,163C 229.526,155.367 218.859,155.7 208.5,164C 199.462,176.718 200.796,188.218 212.5,198.5C 213.466,200.396 213.799,202.396 213.5,204.5C 212.833,203.5 212.167,202.5 211.5,201.5C 206.736,198.072 203.07,193.738 200.5,188.5C 196.73,169.018 204.563,157.685 224,154.5C 229.502,154.667 234.669,156 239.5,158.5 Z"/></g>
<g><path style="opacity:1" fill="#33414a" d="M 179.5,178.5 C 185.167,178.5 190.833,178.5 196.5,178.5C 196.5,179.833 196.5,181.167 196.5,182.5C 190.833,182.5 185.167,182.5 179.5,182.5C 179.5,181.167 179.5,179.833 179.5,178.5 Z"/></g>
<g><path style="opacity:1" fill="#233540" d="M 254.5,178.5 C 259.833,178.5 265.167,178.5 270.5,178.5C 270.5,179.5 270.5,180.5 270.5,181.5C 265.167,181.5 259.833,181.5 254.5,181.5C 254.5,180.5 254.5,179.5 254.5,178.5 Z"/></g>
<g><path style="opacity:1" fill="#5c6870" d="M 253.5,178.5 C 253.833,178.5 254.167,178.5 254.5,178.5C 254.5,179.5 254.5,180.5 254.5,181.5C 259.833,181.5 265.167,181.5 270.5,181.5C 265.36,182.488 260.026,182.821 254.5,182.5C 253.566,181.432 253.232,180.099 253.5,178.5 Z"/></g>
<g><path style="opacity:1" fill="#fcfdfd" d="M 179.5,178.5 C 179.5,179.833 179.5,181.167 179.5,182.5C 185.167,182.5 190.833,182.5 196.5,182.5C 195.158,183.793 193.491,184.626 191.5,185C 193.116,185.615 194.449,186.615 195.5,188C 197.134,188.494 198.801,188.66 200.5,188.5C 203.07,193.738 206.736,198.072 211.5,201.5C 211.216,203.415 211.549,205.081 212.5,206.5C 215.221,210.961 216.221,215.961 215.5,221.5C 218.354,222.812 221.354,223.812 224.5,224.5C 227.839,223.488 231.172,222.488 234.5,221.5C 234.174,217.116 234.508,212.783 235.5,208.5C 237.94,206.891 239.107,204.557 239,201.5C 242.066,198.604 244.899,195.604 247.5,192.5C 249.123,191.509 250.123,192.176 250.5,194.5C 250.369,195.239 250.536,195.906 251,196.5C 259.907,193.6 269.073,192.266 278.5,192.5C 278.5,217.5 278.5,242.5 278.5,267.5C 275.941,267.198 273.607,267.532 271.5,268.5C 256.28,269.018 241.946,273.018 228.5,280.5C 227.501,263.513 227.167,246.513 227.5,229.5C 225.735,228.539 223.735,228.205 221.5,228.5C 221.83,246.008 221.497,263.341 220.5,280.5C 204.918,272.314 188.251,268.314 170.5,268.5C 170.5,243.167 170.5,217.833 170.5,192.5C 180.016,192.594 189.35,193.927 198.5,196.5C 199.408,195.21 199.241,193.877 198,192.5C 195.242,190.357 192.076,189.19 188.5,189C 180.869,187.931 173.202,187.431 165.5,187.5C 165.577,186.25 166.244,185.417 167.5,185C 169.899,184.289 172.232,184.456 174.5,185.5C 175.06,182.288 176.727,179.955 179.5,178.5 Z"/></g>
<g><path style="opacity:1" fill="#94b0c9" d="M 294.5,197.5 C 294.5,197.833 294.5,198.167 294.5,198.5C 292.833,198.5 291.167,198.5 289.5,198.5C 289.5,226.167 289.5,253.833 289.5,281.5C 281.026,282.832 272.193,283.498 263,283.5C 254.167,283.167 245.333,282.833 236.5,282.5C 236.624,281.893 236.957,281.56 237.5,281.5C 254.325,282.497 271.325,282.83 288.5,282.5C 288.5,254.167 288.5,225.833 288.5,197.5C 290.5,197.5 292.5,197.5 294.5,197.5 Z"/></g>
<g><path style="opacity:1" fill="#b1cfe7" d="M 161.5,201.5 C 161.5,228.5 161.5,255.5 161.5,282.5C 161.167,282.5 160.833,282.5 160.5,282.5C 160.5,254.5 160.5,226.5 160.5,198.5C 158.5,198.5 156.5,198.5 154.5,198.5C 154.5,228.833 154.5,259.167 154.5,289.5C 173.5,289.5 192.5,289.5 211.5,289.5C 212.167,289.5 212.833,289.5 213.5,289.5C 213.5,289.833 213.5,290.167 213.5,290.5C 193.5,290.5 173.5,290.5 153.5,290.5C 153.5,259.5 153.5,228.5 153.5,197.5C 156.167,197.5 158.833,197.5 161.5,197.5C 161.5,198.833 161.5,200.167 161.5,201.5 Z"/></g>
<g><path style="opacity:1" fill="#4987bd" d="M 293.5,287.5 C 292.5,287.5 291.5,287.5 290.5,287.5C 290.5,285.5 290.5,283.5 290.5,281.5C 290.5,254.167 290.5,226.833 290.5,199.5C 291.5,199.5 292.5,199.5 293.5,199.5C 293.5,228.833 293.5,258.167 293.5,287.5 Z"/></g>
<g><path style="opacity:1" fill="#4d7a9f" d="M 294.5,198.5 C 294.5,228.833 294.5,259.167 294.5,289.5C 274.833,289.5 255.167,289.5 235.5,289.5C 252.992,288.503 270.659,288.17 288.5,288.5C 290.415,288.784 292.081,288.451 293.5,287.5C 293.5,258.167 293.5,228.833 293.5,199.5C 292.5,199.5 291.5,199.5 290.5,199.5C 290.5,226.833 290.5,254.167 290.5,281.5C 290.167,281.5 289.833,281.5 289.5,281.5C 289.5,253.833 289.5,226.167 289.5,198.5C 291.167,198.5 292.833,198.5 294.5,198.5 Z"/></g>
<g><path style="opacity:1" fill="#f0f9fb" d="M 165.5,187.5 C 165.5,216.167 165.5,244.833 165.5,273.5C 181.461,272.716 196.794,275.382 211.5,281.5C 195.008,282.497 178.342,282.83 161.5,282.5C 161.5,255.5 161.5,228.5 161.5,201.5C 162.332,223.996 162.832,246.663 163,269.5C 163.333,269.167 163.667,268.833 164,268.5C 164.168,241.33 164.668,214.33 165.5,187.5 Z"/></g>
<g><path style="opacity:1" fill="#4d84b6" d="M 160.5,283.5 C 178.17,283.667 195.836,283.5 213.5,283C 212.956,282.283 212.289,281.783 211.5,281.5C 214.45,278.784 217.116,279.284 219.5,283C 217.655,284.423 215.655,285.59 213.5,286.5C 215.045,287.452 216.712,287.785 218.5,287.5C 218.649,288.552 218.483,289.552 218,290.5C 216.644,289.62 215.144,289.286 213.5,289.5C 212.833,289.5 212.167,289.5 211.5,289.5C 211.134,288.305 210.301,287.639 209,287.5C 191.201,288.48 173.368,288.813 155.5,288.5C 155.5,258.833 155.5,229.167 155.5,199.5C 156.833,199.5 158.167,199.5 159.5,199.5C 159.169,227.672 159.502,255.672 160.5,283.5 Z"/></g>
<g><path style="opacity:1" fill="#7b9fbe" d="M 211.5,281.5 C 212.289,281.783 212.956,282.283 213.5,283C 195.836,283.5 178.17,283.667 160.5,283.5C 160.5,283.167 160.5,282.833 160.5,282.5C 160.833,282.5 161.167,282.5 161.5,282.5C 178.342,282.83 195.008,282.497 211.5,281.5 Z"/></g>
<g><path style="opacity:1" fill="#5b86ad" d="M 165.5,187.5 C 173.202,187.431 180.869,187.931 188.5,189C 192.076,189.19 195.242,190.357 198,192.5C 199.241,193.877 199.408,195.21 198.5,196.5C 189.35,193.927 180.016,192.594 170.5,192.5C 174.647,191.675 178.981,191.175 183.5,191C 177.928,189.649 172.262,189.149 166.5,189.5C 166.333,216.835 166.5,244.169 167,271.5C 175.088,272.648 183.254,272.815 191.5,272C 184.408,269.725 177.408,269.558 170.5,271.5C 170.5,270.5 170.5,269.5 170.5,268.5C 188.251,268.314 204.918,272.314 220.5,280.5C 220.56,281.043 220.893,281.376 221.5,281.5C 222.5,264.179 222.833,246.846 222.5,229.5C 224.167,229.5 225.833,229.5 227.5,229.5C 227.167,246.513 227.501,263.513 228.5,280.5C 241.946,273.018 256.28,269.018 271.5,268.5C 274.167,268.5 276.833,268.5 279.5,268.5C 279.5,269.5 279.5,270.5 279.5,271.5C 280.5,271.5 281.5,271.5 282.5,271.5C 282.667,244.498 282.5,217.498 282,190.5C 279.415,187.872 276.915,187.872 274.5,190.5C 276.396,191.466 278.396,191.799 280.5,191.5C 280.831,216.672 280.498,241.672 279.5,266.5C 279.831,241.661 279.498,216.994 278.5,192.5C 269.073,192.266 259.907,193.6 251,196.5C 250.536,195.906 250.369,195.239 250.5,194.5C 252.046,191.8 254.379,189.967 257.5,189C 266.448,187.693 275.448,187.193 284.5,187.5C 284.5,216.167 284.5,244.833 284.5,273.5C 268.105,272.177 252.438,274.843 237.5,281.5C 236.957,281.56 236.624,281.893 236.5,282.5C 245.333,282.833 254.167,283.167 263,283.5C 272.193,283.498 281.026,282.832 289.5,281.5C 289.833,281.5 290.167,281.5 290.5,281.5C 290.5,283.5 290.5,285.5 290.5,287.5C 291.5,287.5 292.5,287.5 293.5,287.5C 292.081,288.451 290.415,288.784 288.5,288.5C 277.674,287.67 266.674,287.17 255.5,287C 298.167,285.667 298.167,285 255.5,285C 253.731,286.019 252.064,286.186 250.5,285.5C 249.532,286.489 248.365,287.156 247,287.5C 243.72,286.025 240.22,285.192 236.5,285C 235.773,283.601 235.273,282.101 235,280.5C 230.515,282.838 225.682,284.171 220.5,284.5C 220.5,285.5 220.5,286.5 220.5,287.5C 222.5,287.5 224.5,287.5 226.5,287.5C 226.5,288.5 226.5,289.5 226.5,290.5C 224.143,290.337 221.81,290.503 219.5,291C 220.155,292.487 221.155,293.653 222.5,294.5C 225.791,293.618 229.124,292.952 232.5,292.5C 232.5,291.5 232.5,290.5 232.5,289.5C 233.5,289.5 234.5,289.5 235.5,289.5C 235.5,289.833 235.5,290.167 235.5,290.5C 230.761,296.504 224.761,298.004 217.5,295C 215.959,293.629 214.625,292.129 213.5,290.5C 213.5,290.167 213.5,289.833 213.5,289.5C 215.144,289.286 216.644,289.62 218,290.5C 218.483,289.552 218.649,288.552 218.5,287.5C 216.712,287.785 215.045,287.452 213.5,286.5C 215.655,285.59 217.655,284.423 219.5,283C 217.116,279.284 214.45,278.784 211.5,281.5C 196.794,275.382 181.461,272.716 165.5,273.5C 165.5,244.833 165.5,216.167 165.5,187.5 Z"/></g>
<g><path style="opacity:1" fill="#4d84b5" d="M 223.5,230.5 C 224.765,231.514 225.431,233.014 225.5,235C 227.092,249.897 226.758,264.73 224.5,279.5C 223.501,263.18 223.167,246.847 223.5,230.5 Z"/></g>
<g><path style="opacity:1" fill="#aecce3" d="M 227.5,229.5 C 225.833,229.5 224.167,229.5 222.5,229.5C 222.833,246.846 222.5,264.179 221.5,281.5C 220.893,281.376 220.56,281.043 220.5,280.5C 221.497,263.341 221.83,246.008 221.5,228.5C 223.735,228.205 225.735,228.539 227.5,229.5 Z"/></g>
<g><path style="opacity:1" fill="#4a85c1" d="M 279.5,268.5 C 279.5,267.833 279.5,267.167 279.5,266.5C 280.498,241.672 280.831,216.672 280.5,191.5C 278.396,191.799 276.396,191.466 274.5,190.5C 276.915,187.872 279.415,187.872 282,190.5C 282.5,217.498 282.667,244.498 282.5,271.5C 281.5,271.5 280.5,271.5 279.5,271.5C 279.5,270.5 279.5,269.5 279.5,268.5 Z"/></g>
<g><path style="opacity:1" fill="#aec8de" d="M 278.5,192.5 C 279.498,216.994 279.831,241.661 279.5,266.5C 279.5,267.167 279.5,267.833 279.5,268.5C 276.833,268.5 274.167,268.5 271.5,268.5C 273.607,267.532 275.941,267.198 278.5,267.5C 278.5,242.5 278.5,217.5 278.5,192.5 Z"/></g>
<g><path style="opacity:1" fill="#4e87b9" d="M 170.5,192.5 C 170.5,217.833 170.5,243.167 170.5,268.5C 170.5,269.5 170.5,270.5 170.5,271.5C 177.408,269.558 184.408,269.725 191.5,272C 183.254,272.815 175.088,272.648 167,271.5C 166.5,244.169 166.333,216.835 166.5,189.5C 172.262,189.149 177.928,189.649 183.5,191C 178.981,191.175 174.647,191.675 170.5,192.5 Z"/></g>
<g><path style="opacity:1" fill="#515a61" d="M 211.5,201.5 C 212.167,202.5 212.833,203.5 213.5,204.5C 220.443,205.427 227.443,205.76 234.5,205.5C 228.099,206.184 221.599,206.85 215,207.5C 214.162,206.001 213.329,205.668 212.5,206.5C 211.549,205.081 211.216,203.415 211.5,201.5 Z"/></g>
<g><path style="opacity:1" fill="#4c7ba0" d="M 160.5,282.5 C 160.5,282.833 160.5,283.167 160.5,283.5C 159.502,255.672 159.169,227.672 159.5,199.5C 158.167,199.5 156.833,199.5 155.5,199.5C 155.5,229.167 155.5,258.833 155.5,288.5C 173.368,288.813 191.201,288.48 209,287.5C 210.301,287.639 211.134,288.305 211.5,289.5C 192.5,289.5 173.5,289.5 154.5,289.5C 154.5,259.167 154.5,228.833 154.5,198.5C 156.5,198.5 158.5,198.5 160.5,198.5C 160.5,226.5 160.5,254.5 160.5,282.5 Z"/></g>
<g><path style="opacity:1" fill="#4a86ba" d="M 288.5,288.5 C 270.659,288.17 252.992,288.503 235.5,289.5C 234.5,289.5 233.5,289.5 232.5,289.5C 232.5,290.5 232.5,291.5 232.5,292.5C 229.124,292.952 225.791,293.618 222.5,294.5C 221.155,293.653 220.155,292.487 219.5,291C 221.81,290.503 224.143,290.337 226.5,290.5C 226.5,289.5 226.5,288.5 226.5,287.5C 224.5,287.5 222.5,287.5 220.5,287.5C 220.5,286.5 220.5,285.5 220.5,284.5C 225.682,284.171 230.515,282.838 235,280.5C 235.273,282.101 235.773,283.601 236.5,285C 240.22,285.192 243.72,286.025 247,287.5C 248.365,287.156 249.532,286.489 250.5,285.5C 252.064,286.186 253.731,286.019 255.5,285C 298.167,285 298.167,285.667 255.5,287C 266.674,287.17 277.674,287.67 288.5,288.5 Z"/></g>
<g><path style="opacity:1" fill="#a1bed4" d="M 294.5,197.5 C 295.498,228.329 295.831,259.329 295.5,290.5C 275.5,290.5 255.5,290.5 235.5,290.5C 235.5,290.167 235.5,289.833 235.5,289.5C 255.167,289.5 274.833,289.5 294.5,289.5C 294.5,259.167 294.5,228.833 294.5,198.5C 294.5,198.167 294.5,197.833 294.5,197.5 Z"/></g>
<g><path style="opacity:1" fill="#eef7fb" d="M 191.5,349.5 C 188.167,349.5 184.833,349.5 181.5,349.5C 181.5,355.5 181.5,361.5 181.5,367.5C 180.833,362.319 180.167,356.985 179.5,351.5C 178.447,352.438 177.78,353.605 177.5,355C 178.409,356.789 178.576,358.623 178,360.5C 176.294,361.308 175.461,362.641 175.5,364.5C 176.791,364.263 177.791,364.596 178.5,365.5C 175.833,365.5 173.167,365.5 170.5,365.5C 170.828,360.125 170.495,354.792 169.5,349.5C 168.504,355.463 168.171,361.463 168.5,367.5C 167.012,361.781 165.679,355.781 164.5,349.5C 164.712,347.112 166.045,346.112 168.5,346.5C 171.512,346.179 172.845,347.512 172.5,350.5C 173.822,350.33 174.989,350.663 176,351.5C 177.11,349.963 178.61,349.297 180.5,349.5C 180.5,348.5 180.5,347.5 180.5,346.5C 184.167,346.5 187.833,346.5 191.5,346.5C 191.5,347.5 191.5,348.5 191.5,349.5 Z"/></g>
<g><path style="opacity:1" fill="#6992b4" d="M 210.5,349.5 C 213.518,349.335 216.518,349.502 219.5,350C 222.167,353 222.167,356 219.5,359C 221.196,361.587 222.196,364.421 222.5,367.5C 221.5,367.5 220.5,367.5 219.5,367.5C 220.815,362.164 218.815,359.497 213.5,359.5C 213.5,362.167 213.5,364.833 213.5,367.5C 212.5,367.5 211.5,367.5 210.5,367.5C 210.5,361.5 210.5,355.5 210.5,349.5 Z"/></g>
<g><path style="opacity:1" fill="#5e8cb5" d="M 235.5,362.5 C 235.783,363.289 236.283,363.956 237,364.5C 237.499,359.511 237.666,354.511 237.5,349.5C 239.453,355.074 240.12,361.074 239.5,367.5C 238.178,367.67 237.011,367.337 236,366.5C 233.584,361.999 230.917,357.666 228,353.5C 227.828,358.202 227.328,362.868 226.5,367.5C 225.504,361.537 225.171,355.537 225.5,349.5C 226.675,349.281 227.675,349.614 228.5,350.5C 231.361,354.227 233.695,358.227 235.5,362.5 Z"/></g>
<g><path style="opacity:1" fill="#4b85b2" d="M 243.5,349.5 C 244.816,352.087 245.483,355.087 245.5,358.5C 245.167,361.5 244.833,364.5 244.5,367.5C 243.504,361.537 243.171,355.537 243.5,349.5 Z"/></g>
<g><path style="opacity:1" fill="#effafb" d="M 213.5,351.5 C 218.667,350.492 220.334,352.325 218.5,357C 216.866,357.494 215.199,357.66 213.5,357.5C 213.5,355.5 213.5,353.5 213.5,351.5 Z"/></g>
<g><path style="opacity:1" fill="#9bafc3" d="M 237.5,349.5 C 237.666,354.511 237.499,359.511 237,364.5C 236.283,363.956 235.783,363.289 235.5,362.5C 236.167,358.167 236.833,353.833 237.5,349.5 Z"/></g>
<g><path style="opacity:1" fill="#96b7d2" d="M 275.5,358.5 C 277.265,357.539 279.265,357.205 281.5,357.5C 281.81,360.713 281.477,363.713 280.5,366.5C 280.5,363.833 280.5,361.167 280.5,358.5C 278.833,358.5 277.167,358.5 275.5,358.5 Z"/></g>
<g><path style="opacity:1" fill="#6188aa" d="M 259.5,361.5 C 259.783,362.289 260.283,362.956 261,363.5C 261.333,359.5 261.667,355.5 262,351.5C 262.499,356.823 262.666,362.156 262.5,367.5C 258.218,363.638 254.885,358.972 252.5,353.5C 251.833,358.167 251.167,362.833 250.5,367.5C 249.504,361.537 249.171,355.537 249.5,349.5C 251.39,349.297 252.89,349.963 254,351.5C 256.091,354.74 257.924,358.074 259.5,361.5 Z"/></g>
<g><path style="opacity:1" fill="#89abc7" d="M 262.5,367.5 C 262.666,362.156 262.499,356.823 262,351.5C 261.667,355.5 261.333,359.5 261,363.5C 260.283,362.956 259.783,362.289 259.5,361.5C 260.483,357.702 260.817,353.702 260.5,349.5C 261.5,349.5 262.5,349.5 263.5,349.5C 263.823,355.69 263.49,361.69 262.5,367.5 Z"/></g>
<g><path style="opacity:1" fill="#5e89b2" d="M 199.5,349.5 C 200.675,349.281 201.675,349.614 202.5,350.5C 204.32,355.446 205.987,360.446 207.5,365.5C 207.167,366.167 206.833,366.833 206.5,367.5C 205.218,365.821 204.218,363.987 203.5,362C 201.19,361.503 198.857,361.337 196.5,361.5C 196.753,363.827 196.086,365.827 194.5,367.5C 194.585,361.173 196.251,355.173 199.5,349.5 Z"/></g>
<g><path style="opacity:1" fill="#def0f6" d="M 199.5,351.5 C 201.693,353.522 202.693,356.189 202.5,359.5C 201.167,359.5 199.833,359.5 198.5,359.5C 198.833,356.833 199.167,354.167 199.5,351.5 Z"/></g>
<g><path style="opacity:1" fill="#5d8db5" d="M 191.5,349.5 C 189.365,351.369 186.698,352.036 183.5,351.5C 183.5,353.167 183.5,354.833 183.5,356.5C 192.833,357.167 192.833,357.833 183.5,358.5C 183.5,360.833 183.5,363.167 183.5,365.5C 186.247,365.187 188.914,365.52 191.5,366.5C 188.232,367.487 184.898,367.82 181.5,367.5C 181.5,361.5 181.5,355.5 181.5,349.5C 184.833,349.5 188.167,349.5 191.5,349.5 Z"/></g>
<g><path style="opacity:1" fill="#5f87a7" d="M 275.5,358.5 C 277.167,358.5 278.833,358.5 280.5,358.5C 280.5,361.167 280.5,363.833 280.5,366.5C 269.986,369.492 265.486,365.492 267,354.5C 268.8,350.765 271.8,349.098 276,349.5C 277.5,349.833 279,350.167 280.5,350.5C 268.817,350.309 265.817,355.143 271.5,365C 274.146,365.497 276.813,365.664 279.5,365.5C 279.5,363.5 279.5,361.5 279.5,359.5C 277.901,359.768 276.568,359.434 275.5,358.5 Z"/></g>
<g><path style="opacity:1" fill="#6186a9" d="M 178.5,365.5 C 175.663,367.402 172.329,368.069 168.5,367.5C 168.171,361.463 168.504,355.463 169.5,349.5C 170.495,354.792 170.828,360.125 170.5,365.5C 173.167,365.5 175.833,365.5 178.5,365.5 Z"/></g>
</svg>
